# xmcd
#
# Track frame offsets:
#	150
#	13787
#	39521
#	56212
#	90726
#	112860
#	132431
#	161322
#	179448
#	208270
#	227449
#	249163
#
# Disc length: 3745 seconds
#
# Revision: 1
# Processed by: cddbd v1.4PL0 Copyright (c) Steve Scherf et al.
# Submitted via: CDmax 1.8
#
DISCID=980e9f0c
DTITLE=Ron Ringwood's Crosscut Bluesband - Earth Tones
DYEAR=2000
DGENRE=Blues
TTITLE0=Born Under A Bad Sign
TTITLE1=Nobody Loves Me Like You Do
TTITLE2=Next Time You See Me
TTITLE3=Sittin' On A Dock Of A Bay
TTITLE4=Send Me Someone To Love
TTITLE5=I'd Rather Drink Muddy Water
TTITLE6=Rainy Night In Georgia
TTITLE7=Turner Brown Blues
TTITLE8=Going Down Slow
TTITLE9=Lush Life
TTITLE10=Way Back Home
TTITLE11=The Thrill Is Gone
EXTD=
EXTT0=B. Jones - W. Bell
EXTT1=R. Ringwood
EXTT2=J. Parker
EXTT3=O. Redding - S. Cropper
EXTT4=P. Mayfield
EXTT5=E. Miller
EXTT6=T.J. White
EXTT7=R. Ringwood - A. Marsico - J.C. Doo Kingue - E. Zirill
EXTT8=J. Oden
EXTT9=R. Ringwood
EXTT10=J. Sample
EXTT11=B.B. King
PLAYORDER=
